<?xml version="1.0" encoding="UTF-8" standalone="no"?><!DOCTYPE svg PUBLIC "-//W3C//DTD SVG 1.1//EN" "http://www.w3.org/Graphics/SVG/1.1/DTD/svg11.dtd"><svg width="100%" height="100%" viewBox="0 0 25 25" version="1.1" xmlns="http://www.w3.org/2000/svg" xmlns:xlink="http://www.w3.org/1999/xlink" xml:space="preserve" xmlns:serif="http://www.serif.com/" style="fill-rule:evenodd;clip-rule:evenodd;stroke-linejoin:round;stroke-miterlimit:2;"><rect x="-4.138" y="-5.939" width="37.903" height="34.624" style="fill:#133ff8;"/><path d="M-0.199,-0.242l8.181,7.968l-0.165,8.878l-8.693,9.326l-1.602,-24.516l2.279,-1.656Z" style="fill-opacity:0.44;"/><path d="M24.996,-0.06l-8.495,7.859l0.172,8.757l9.026,9.199l1.663,-24.181l-2.366,-1.634Z" style="fill-opacity:0.44;"/><path d="M-0.245,25.227l8.087,-8.639l8.865,-0.03l8.552,8.732l-25.504,-0.063Z" style="fill-opacity:0.26;"/><path d="M-0.05,-0.088l8.053,7.798" style="fill:none;"/><path d="M-0.048,-0.094l8.037,7.823l8.541,0.063l8.433,-7.824l0.511,-0.556l-2.912,-0.704l-21.859,-0.672l-0.751,1.87Z" style="fill-opacity:0.26;"/></svg>