<?xml version="1.0" encoding="UTF-8" standalone="no"?><!DOCTYPE svg PUBLIC "-//W3C//DTD SVG 1.1//EN" "http://www.w3.org/Graphics/SVG/1.1/DTD/svg11.dtd"><svg width="100%" height="100%" viewBox="0 0 105 105" version="1.1" xmlns="http://www.w3.org/2000/svg" xmlns:xlink="http://www.w3.org/1999/xlink" xml:space="preserve" xmlns:serif="http://www.serif.com/" style="fill-rule:evenodd;clip-rule:evenodd;stroke-linejoin:round;stroke-miterlimit:2;"><rect x="-17.242" y="-24.746" width="157.929" height="144.267" style="fill:#575757;"/><path d="M-0.829,-1.008l34.087,33.2l-0.687,36.991l-36.221,38.859l-6.675,-102.15l9.496,-6.9Z" style="fill-opacity:0.44;"/><path d="M104.15,-0.25l-35.396,32.746l0.717,36.487l37.608,38.33l6.929,-100.755l-9.858,-6.808Z" style="fill-opacity:0.44;"/><path d="M-1.021,105.113l33.696,-35.996l36.938,-0.125l35.633,36.383l-106.267,-0.262Z" style="fill-opacity:0.26;"/><path d="M-0.208,-0.367l33.554,32.492" style="fill:none;"/><path d="M-0.2,-0.392l33.488,32.596l35.587,0.263l35.138,-32.6l2.129,-2.317l-12.134,-2.933l-91.079,-2.8l-3.129,7.791Z" style="fill-opacity:0.26;"/></svg>