<?xml version="1.0" encoding="UTF-8" standalone="no"?><!DOCTYPE svg PUBLIC "-//W3C//DTD SVG 1.1//EN" "http://www.w3.org/Graphics/SVG/1.1/DTD/svg11.dtd"><svg width="100%" height="100%" viewBox="0 0 100 100" version="1.1" xmlns="http://www.w3.org/2000/svg" xmlns:xlink="http://www.w3.org/1999/xlink" xml:space="preserve" xmlns:serif="http://www.serif.com/" style="fill-rule:evenodd;clip-rule:evenodd;stroke-linejoin:round;stroke-miterlimit:2;"><g><rect x="-69.398" y="42.656" width="100" height="100" style="fill:none;"/></g><g><g><path d="M87.5,20.833c-4.625,-1.458 -9.708,-2.083 -14.583,-2.083c-8.125,0 -16.875,1.667 -22.917,6.25c-6.042,-4.583 -14.792,-6.25 -22.917,-6.25c-8.125,0 -16.875,1.667 -22.916,6.25l-0,61.042c-0,1.041 1.041,2.083 2.083,2.083c0.417,0 0.625,-0.208 1.042,-0.208c5.625,-2.709 13.75,-4.584 19.791,-4.584c8.125,0 16.875,1.667 22.917,6.25c5.625,-3.541 15.833,-6.25 22.917,-6.25c6.875,0 13.958,1.25 19.791,4.375c0.417,0.209 0.625,0.209 1.042,0.209c1.042,-0 2.083,-1.042 2.083,-2.084l0,-60.833c-2.5,-1.875 -5.208,-3.125 -8.333,-4.167Zm0,56.25c-4.583,-1.458 -9.583,-2.083 -14.583,-2.083c-7.084,0 -17.292,2.708 -22.917,6.25l0,-47.917c5.625,-3.541 15.833,-6.25 22.917,-6.25c5,0 10,0.625 14.583,2.084l0,47.916Z" style="fill:#8f8983;fill-rule:nonzero;"/><g><path d="M72.917,43.75c3.666,0 7.208,0.375 10.416,1.083l0,-6.333c-3.291,-0.625 -6.833,-1 -10.416,-1c-7.084,0 -13.5,1.208 -18.75,3.458l-0,6.917c4.708,-2.667 11.25,-4.125 18.75,-4.125Z" style="fill:#8f8983;fill-rule:nonzero;"/><path d="M54.167,52.042l-0,6.916c4.708,-2.666 11.25,-4.125 18.75,-4.125c3.666,0 7.208,0.375 10.416,1.084l0,-6.334c-3.291,-0.625 -6.833,-1 -10.416,-1c-7.084,0 -13.5,1.25 -18.75,3.459Z" style="fill:#8f8983;fill-rule:nonzero;"/><path d="M72.917,59.708c-7.084,0 -13.5,1.209 -18.75,3.459l-0,6.916c4.708,-2.666 11.25,-4.125 18.75,-4.125c3.666,0 7.208,0.375 10.416,1.084l0,-6.334c-3.291,-0.666 -6.833,-1 -10.416,-1Z" style="fill:#8f8983;fill-rule:nonzero;"/></g></g><rect x="59.083" y="28.858" width="30.343" height="28.705" style="fill:#8f8983;"/><rect x="56.344" y="25.976" width="32.541" height="24.62" style="fill:#8f8983;"/><rect x="51.587" y="28.689" width="32.059" height="16.842" style="fill:#8f8983;"/></g><rect x="47.449" y="49.929" width="16.605" height="32.735" style="fill:#8f8983;"/><rect x="62.708" y="54.901" width="27.614" height="23.011" style="fill:#8f8983;"/><rect x="49.226" y="30.673" width="36.5" height="27.447" style="fill:#8f8983;"/></svg>